<svg width="46" height="46" viewBox="0 0 46 46" fill="none" xmlns="http://www.w3.org/2000/svg">
<circle cx="23.2709" cy="23.2204" r="22.5966" fill="#FAC7B5"/>
<circle cx="23.2711" cy="23.2203" r="16.4339" fill="#EB8382"/>
<path d="M29.2928 17.4413C29.3967 17.4516 29.4989 17.4773 29.5956 17.5174L29.6893 17.5624C29.7812 17.6115 29.8654 17.674 29.9393 17.7479L30.0096 17.8251C30.076 17.9057 30.1306 17.9958 30.1708 18.0926C30.2243 18.2217 30.2518 18.3602 30.2518 18.4999C30.2518 18.6046 30.2362 18.7086 30.2059 18.8085L30.1708 18.9071C30.1173 19.0359 30.038 19.1523 29.9393 19.2508L29.9403 19.2518L22.0653 27.1268L22.0643 27.1258C21.9903 27.2 21.9064 27.2631 21.8143 27.3124L21.7206 27.3573C21.5916 27.4108 21.453 27.4383 21.3134 27.4383C21.2087 27.4383 21.1046 27.4227 21.0048 27.3924L20.9061 27.3573C20.7773 27.3038 20.66 27.2255 20.5614 27.1268L16.6239 23.1893C16.4245 22.9899 16.3124 22.7193 16.3124 22.4374L16.3173 22.3319C16.3415 22.0886 16.4495 21.8598 16.6239 21.6854L16.702 21.6151C16.8912 21.4601 17.1292 21.3739 17.3759 21.3739C17.6577 21.374 17.9285 21.4861 18.1278 21.6854L21.3134 24.8719L28.4364 17.7479C28.535 17.6492 28.6523 17.5709 28.7811 17.5174L28.8798 17.4823C28.9796 17.452 29.0837 17.4364 29.1884 17.4364L29.2928 17.4413Z" fill="white" stroke="white"/>
</svg>
